<svg xmlns="http://www.w3.org/2000/svg" version="1.1" xmlns:xlink="http://www.w3.org/1999/xlink" xmlns:svgjs="http://svgjs.dev/svgjs" width="100%" height="100%" viewBox="0 0 1000 600"><rect width="1000" height="600" x="0" y="0" fill="#072c50"/><g><circle r="166.66666666666666" cx="296.5204722086588" cy="318.742700715553" fill="#b88746" transform="matrix(0.9626209611811034,0,0,0.9626209611811032,0,-6.828409002507286)"/><path d="M265.74396955051077 393.742710490063L203.46492974640893 393.742710490063L203.46492974640893 387.14548833139236Q213.4712427813305 387.14548833139236 217.890434657952 386.1353873310218Q222.30962653457354 385.0937206743895 223.35129319120574 382.1581146420623Q224.36139419157638 379.1909429534736 224.36139419157638 373.50912482638887L224.36139419157638 373.50912482638887L224.36139419157638 335.0937211560432L186.4194753651545 261.4826107540334Q184.14674811432056 256.9371562523655 181.87402086348666 254.53816637648526Q179.6012936126527 252.13917650060503 176.41316233023292 251.25533812528073Q173.2250310478131 250.33993409369484 167.5432129207283 250.33993409369484L167.5432129207283 250.33993409369484L167.5432129207283 243.74271193502415L221.4257881592492 243.74271193502415L221.4257881592492 250.33993409369484L210.06215190507962 250.33993409369484Q207.09498021649088 250.33993409369484 206.5267984037824 252.26543912565137Q205.95861659107393 254.19094415760787 207.31593981032196 257.1581158461966L207.31593981032196 257.1581158461966L239.35508091582798 322.1518020887945L240.04952535358277 322.1518020887945L270.28942405217856 257.82099462768986Q271.4257876775955 255.5482673768559 271.5204846463803 253.9699845637768Q271.64674727142665 252.39170175069768 270.60508061479436 251.35003509406548Q269.5949796144238 250.33993409369484 267.3222523635899 250.33993409369484L267.3222523635899 250.33993409369484L255.73765651558918 250.33993409369484L255.73765651558918 243.74271193502415L300.0558379068507 243.74271193502415L300.0558379068507 250.33993409369484Q293.67957534201105 250.33993409369484 290.17578749697543 251.35003509406548Q286.6404339956782 252.39170175069768 284.24144411979796 255.23261081424008Q281.8740199001793 258.0735198777825 278.9068482115905 263.50281275477465L278.9068482115905 263.50281275477465L244.5949798552506 332.37907471754716L244.5949798552506 373.50912482638887Q244.5949798552506 379.1909429534736 245.73134348066756 382.1581146420623Q246.86770710608454 385.0937206743895 251.4131616077524 386.1353873310218Q255.95861610942023 387.14548833139236 265.74396955051077 387.14548833139236L265.74396955051077 387.14548833139236L265.74396955051077 393.742710490063ZM423.00406904571355 393.742710490063L314.82856503727123 393.742710490063L314.82856503727123 387.14548833139236Q323.22502960285203 387.14548833139236 326.855080072934 386.23008429980644Q330.5166961992776 385.3462459244822 331.4005345746019 382.3790742358934Q332.31593860618773 379.41190254730463 332.31593860618773 373.50912482638887L332.31593860618773 373.50912482638887L332.31593860618773 263.97629759869835Q332.31593860618773 258.0735198777825 331.4005345746019 255.23261081424008Q330.5166961992776 252.39170175069768 326.855080072934 251.35003509406548Q323.22502960285203 250.33993409369484 314.82856503727123 250.33993409369484L314.82856503727123 250.33993409369484L314.82856503727123 243.74271193502415L370.9523018703645 243.74271193502415L370.9523018703645 250.33993409369484Q362.5558373047836 250.33993409369484 358.79952420965526 251.35003509406548Q355.043211114527 252.39170175069768 354.1278070829411 255.23261081424008Q353.2439687076168 258.0735198777825 353.2439687076168 263.97629759869835L353.2439687076168 263.97629759869835L353.2439687076168 367.827306699304Q353.2439687076168 376.0028116710538 355.3904333334044 379.8853873912284Q357.53689795919195 383.7363974551414 363.4712413363694 384.87276108055846Q369.3740190572853 386.0091247059754 380.51669571762386 386.0091247059754L380.51669571762386 386.0091247059754Q393.45861478487257 386.0091247059754 400.97124097512915 383.64170048635674Q408.45230150912414 381.2427106104765 412.5558368231299 374.4245288579747Q416.627806480874 367.6063471054729 419.3740185756317 354.8853876320553L419.3740185756317 354.8853876320553L425.4977558903786 354.8853876320553L423.00406904571355 393.742710490063Z " fill="#072c50" transform="matrix(0.9626209611811034,0,0,0.9626209611811032,0,-6.828409002507286)"/><path d="M628.4016462490141 357.28205826192595L546.5204772843641 357.28205826192595L546.5204772843641 352.28842992413433Q552.8760042597352 352.28842992413433 555.6475874520023 351.5955341260676Q558.3952776857154 350.9265312865549 559.0881734837823 348.6805931824763Q559.757176323295 346.4346550783978 559.757176323295 341.9666718287948L559.757176323295 341.9666718287948L559.757176323295 259.0581056463217Q559.757176323295 254.59012239671864 559.0881734837823 252.43975612685622Q558.3952776857154 250.2893898569938 555.6475874520023 249.5009222247109Q552.8760042597352 248.73634755098206 546.5204772843641 248.73634755098206L546.5204772843641 248.73634755098206L546.5204772843641 243.74271921319044L589.0021575934238 243.74271921319044L589.0021575934238 248.73634755098206Q582.6466306180527 248.73634755098206 579.8033685501235 249.5009222247109Q576.9601064821943 250.2893898569938 576.2911036426816 252.43975612685622Q575.5982078446148 254.59012239671864 575.5982078446148 259.0581056463217L575.5982078446148 259.0581056463217L575.5982078446148 337.6659392890699Q575.5982078446148 343.85421555456287 577.2229290262886 346.7930494567082Q578.8715431665164 349.70799040029954 583.3395264161194 350.56813690824447Q587.8075096657225 351.4282834161894 596.2417240352939 351.4282834161894L596.2417240352939 351.4282834161894Q606.037837042445 351.4282834161894 611.7243611783034 349.63631152463745Q617.3869923556077 347.82044667453135 620.4930769676312 342.65956762686153Q623.5991615796547 337.4986885791918 625.653956015301 327.8698262819189L625.653956015301 327.8698262819189L630.2891899747822 327.8698262819189L628.4016462490141 357.28205826192595ZM682.7581269594251 359.16960198769414L682.7581269594251 359.16960198769414Q663.6676530747577 359.16960198769414 654.4688640314574 348.4177706383821Q645.270074988157 337.6659392890699 645.270074988157 317.02242309839073L645.270074988157 317.02242309839073Q645.270074988157 296.54615761758976 654.4688640314574 285.62707555839955Q663.6676530747577 274.70799349920924 682.7581269594251 274.70799349920924L682.7581269594251 274.70799349920924Q701.8724938026467 274.70799349920924 711.0712828459469 285.5553966827374Q720.2700718892473 296.3789069077116 720.2700718892473 316.8551723885125L720.2700718892473 316.8551723885125Q720.2700718892473 337.6659392890699 711.0712828459469 348.4177706383821Q701.8724938026467 359.16960198769414 682.7581269594251 359.16960198769414ZM682.7581269594251 353.6742215202679L682.7581269594251 353.6742215202679Q693.9400315627097 353.6742215202679 699.0292317347174 344.1170380986572Q704.0945389481711 334.5837476356005 704.0945389481711 316.8551723885125L704.0945389481711 316.8551723885125Q704.0945389481711 298.9593464315465 698.8619810248392 289.593306678368Q693.6055301429534 280.2033739666354 682.590876249547 280.2033739666354L682.590876249547 280.2033739666354Q671.5762223561406 280.2033739666354 666.4153433084708 289.66498555403007Q661.254464260801 299.12659714142467 661.254464260801 317.02242309839073L661.254464260801 317.02242309839073Q661.254464260801 334.7509983454787 666.5109151426869 344.2126099328733Q671.7673660245729 353.6742215202679 682.7581269594251 353.6742215202679ZM769.6329242618668 393.742713015371L769.6329242618668 393.742713015371Q760.0040619645939 393.742713015371 751.999920848995 391.5206678698464Q744.01967269195 389.2747297657679 739.2888668982526 384.5439239720706Q734.5580611045553 379.8131181783733 734.5580611045553 372.430193985179L734.5580611045553 372.430193985179Q734.5580611045553 366.0507740512538 738.8587936442802 361.58279080165084Q743.1595261840051 357.11480755204786 753.6485349892229 354.0087229400243L753.6485349892229 354.0087229400243L764.8304395925073 355.2272638262797Q758.1165182388258 356.2546610441028 754.5086814971678 358.9067794435998Q750.9008447555098 361.58279080165084 749.6106249935923 364.8561261235525Q748.3204052316748 368.12946144545424 748.3204052316748 371.04440238904544L748.3204052316748 371.04440238904544Q748.3204052316748 378.9529716704284 754.675932207046 383.6120985884636Q761.031459182417 388.2473325479448 771.8788623659453 388.2473325479448L771.8788623659453 388.2473325479448Q779.0945358492614 388.2473325479448 784.6854881509037 386.0969662780824Q790.276440452546 383.94660000822 793.4780968987856 379.8131181783733Q796.6558603864712 375.6796363485266 796.6558603864712 369.6586107929119L796.6558603864712 369.6586107929119Q796.6558603864712 363.1358331076626 791.8294827585577 359.958069619977Q787.0269980891984 356.7564131737374 774.7938033095367 356.7564131737374L774.7938033095367 356.7564131737374L757.7820168190694 356.7564131737374Q751.9282419733329 356.7564131737374 747.531937599392 354.70161873809104Q743.1595261840051 352.64682430244477 740.7463373700483 349.37348898054313Q738.3331485560916 346.1001536586414 738.3331485560916 342.32506620710524L738.3331485560916 342.32506620710524Q738.3331485560916 336.47129136136857 744.01967269195 331.31041231369886Q749.6823038692544 326.14953326602904 760.6969577626608 322.18330214606056L760.6969577626608 322.18330214606056L766.8852340281536 324.0708458718286Q765.8578368103306 324.26198954026086 763.1818254522796 325.289386758084Q760.5297070527826 326.31678397590724 757.5908731506372 328.0370769917971Q754.675932207046 329.7573700076871 752.6211377713997 332.0033081117656Q750.5424503771993 334.22535325729007 750.5424503771993 336.9730434910032L750.5424503771993 336.9730434910032Q750.5424503771993 339.5534830148381 753.7202138648848 341.8949929531327Q756.9218703111245 344.2126099328733 766.0250875202088 344.2126099328733L766.0250875202088 344.2126099328733L778.5927837196268 344.2126099328733Q794.9355673705812 344.2126099328733 802.3184915637755 349.80356223451554Q809.7253087155239 355.3945145361579 809.7253087155239 366.0507740512538L809.7253087155239 366.0507740512538Q809.7253087155239 375.87078001695886 804.2299282480977 381.9634844482357Q798.7106548221175 388.0800818380666 789.6074376130332 390.9233439059958Q780.480327445395 393.742713015371 769.6329242618668 393.742713015371ZM770.3258200599336 328.56272207998575L770.3258200599336 328.56272207998575Q762.4172507785506 328.56272207998575 754.9387547511402 325.98228255615084Q747.4602587237299 323.4018430323159 742.6338810958165 317.61974706224146Q737.8075034679031 311.8615440507209 737.8075034679031 302.06543104356996L737.8075034679031 302.06543104356996Q737.8075034679031 294.6586138918217 740.6507655358322 289.49773484415186Q743.4940276037614 284.33685579648204 748.3204052316748 281.0635204745804Q753.1228899010342 277.81407811123273 758.9766647467708 276.33271468088304Q764.8304395925073 274.87524420908744 770.684214438244 274.87524420908744L770.684214438244 274.87524420908744Q779.0945358492614 274.87524420908744 786.4057811667936 277.6229344428005Q793.7170264843259 280.39451763506764 798.280581568145 286.3199713564663Q802.844136651964 292.2454250778649 802.844136651964 301.8981803336918L802.844136651964 301.8981803336918Q802.844136651964 311.6942933408428 798.1133308582667 317.54806818657937Q793.3825250645694 323.4018430323159 785.9040290371591 325.98228255615084Q778.4255330097486 328.56272207998575 770.3258200599336 328.56272207998575ZM769.9913186401772 323.0434486540055L769.9913186401772 323.0434486540055Q779.9546823572064 323.0434486540055 783.8253416429587 317.28524564248505Q787.6960009287111 311.5270426309646 787.6960009287111 301.0380338257468L787.6960009287111 301.0380338257468Q787.6960009287111 295.01700827013207 786.1668515812534 290.35788135209685Q784.6138092752416 285.7226473926156 781.0059725335835 283.1422078687807Q777.3742428333715 280.56176834494585 770.8514651481222 280.56176834494585L770.8514651481222 280.56176834494585Q761.2226028508493 280.56176834494585 757.423622440759 286.4155431906824Q753.6485349892229 292.2454250778649 753.6485349892229 302.23268175344816L753.6485349892229 302.23268175344816Q753.6485349892229 311.16864825265424 757.0891210210027 317.11799493260685Q760.5297070527826 323.0434486540055 769.9913186401772 323.0434486540055ZM815.0534384730719 293.9657180937549L815.0534384730719 293.9657180937549Q811.9712468196024 293.9657180937549 810.0598101352803 292.1737462022029Q808.1722664095121 290.35788135209685 808.1722664095121 288.1358362065723L808.1722664095121 288.1358362065723Q808.1722664095121 286.4155431906824 808.5306607878225 285.5553966827374Q808.8651622075789 284.6952501747925 808.8651622075789 283.8351036668475L808.8651622075789 283.8351036668475Q808.8651622075789 282.7838134904703 808.0050156996339 281.92366698252533Q807.144869191689 281.0635204745804 805.424576175799 281.0635204745804L805.424576175799 281.0635204745804Q803.8715338697872 281.0635204745804 801.5539168900467 282.87938532468644Q799.236299910306 284.6952501747925 796.6558603864712 289.16323342439546L796.6558603864712 289.16323342439546L793.2152743546912 285.8898981024938Q796.1302152982826 280.729019054824 800.3592689623453 277.81407811123273Q804.564429667854 274.87524420908744 809.5580580056456 274.87524420908744L809.5580580056456 274.87524420908744Q815.22068918295 274.87524420908744 818.6612752147299 277.8857569868948Q822.1018612465098 280.8962697647022 822.1018612465098 285.8898981024938L822.1018612465098 285.8898981024938Q822.1018612465098 289.49773484415186 820.3098893549577 291.74367294823037Q818.4940245048516 293.9657180937549 815.0534384730719 293.9657180937549ZM871.4886065776833 359.16960198769414L871.4886065776833 359.16960198769414Q852.3981326930158 359.16960198769414 843.1754506911615 348.4177706383821Q833.9766616478611 337.6659392890699 833.9766616478611 317.02242309839073L833.9766616478611 317.02242309839073Q833.9766616478611 296.54615761758976 843.1754506911615 285.62707555839955Q852.3981326930158 274.70799349920924 871.4886065776833 274.70799349920924L871.4886065776833 274.70799349920924Q890.5790804623507 274.70799349920924 899.777869505651 285.5553966827374Q908.9766585489514 296.3789069077116 908.9766585489514 316.8551723885125L908.9766585489514 316.8551723885125Q908.9766585489514 337.6659392890699 899.777869505651 348.4177706383821Q890.5790804623507 359.16960198769414 871.4886065776833 359.16960198769414ZM871.4886065776833 353.6742215202679L871.4886065776833 353.6742215202679Q882.6705111809678 353.6742215202679 887.7358183944215 344.1170380986572Q892.8250185664292 334.5837476356005 892.8250185664292 316.8551723885125L892.8250185664292 316.8551723885125Q892.8250185664292 298.9593464315465 887.5685676845434 289.593306678368Q882.3121168026573 280.2033739666354 871.321355867805 280.2033739666354L871.321355867805 280.2033739666354Q860.3067019743986 280.2033739666354 855.1458229267289 289.66498555403007Q849.9849438790591 299.12659714142467 849.9849438790591 317.02242309839073L849.9849438790591 317.02242309839073Q849.9849438790591 334.7509983454787 855.217501802391 344.2126099328733Q860.4739526842769 353.6742215202679 871.4886065776833 353.6742215202679Z " fill="#b88746" transform="matrix(0.9626209611811034,0,0,0.9626209611811032,0,-6.828409002507286)"/></g></svg>